<?xml version="1.0" standalone="no"?>
<!DOCTYPE svg PUBLIC "-//W3C//DTD SVG 20010904//EN"
 "http://www.w3.org/TR/2001/REC-SVG-20010904/DTD/svg10.dtd">
<svg version="1.0" xmlns="http://www.w3.org/2000/svg"
 width="1080.000000pt" height="707.000000pt" viewBox="0 0 1080.000000 707.000000"
 preserveAspectRatio="xMidYMid meet">

<g transform="translate(0.000000,707.000000) scale(0.100000,-0.100000)"
fill="#000000" stroke="none">
<path d="M8390 6260 c0 -5 5 -10 10 -10 6 0 10 5 10 10 0 6 -4 10 -10 10 -5 0
-10 -4 -10 -10z"/>
<path d="M4947 5078 c-504 -503 -586 -597 -667 -761 -137 -280 -99 -573 95
-732 25 -21 45 -43 45 -50 0 -7 -25 -31 -55 -54 -138 -104 -225 -278 -225
-449 0 -179 96 -366 239 -463 50 -34 62 -58 39 -76 -7 -5 -49 -20 -93 -32
-184 -52 -311 -144 -374 -272 -114 -233 -24 -488 213 -605 l80 -39 1155 -3
c758 -1 1173 1 1210 8 90 17 176 63 245 132 109 110 152 245 122 388 -45 214
-186 333 -482 410 -52 13 -64 38 -32 63 97 74 143 118 176 166 78 113 105 198
105 326 0 173 -79 330 -224 442 -32 25 -59 54 -59 63 0 10 18 30 40 45 54 37
115 119 146 195 90 223 31 472 -176 739 -54 70 -1014 1020 -1040 1029 -5 2
-222 -210 -483 -470z m664 -844 c108 -32 199 -100 257 -195 26 -43 57 -161 49
-183 -6 -14 -56 -16 -431 -16 l-426 0 -6 25 c-15 62 35 184 106 255 50 51 120
93 189 114 63 20 195 20 262 0z m309 -984 l0 -490 -435 0 -435 0 0 490 0 490
435 0 435 0 0 -490z m-1186 -700 c20 -7 26 -17 26 -38 0 -15 -5 -33 -10 -38
-7 -7 -5 -23 5 -48 9 -21 14 -40 11 -43 -12 -12 -34 8 -39 36 -5 25 -12 31
-32 31 -22 0 -25 -4 -25 -35 0 -24 -5 -35 -15 -35 -12 0 -15 17 -15 90 l0 90
34 0 c19 0 46 -4 60 -10z m1061 -5 c0 -5 -19 -11 -42 -13 -99 -7 -96 -132 2
-132 19 0 35 -4 35 -10 0 -5 -20 -10 -45 -10 -35 0 -52 6 -70 25 -43 42 -27
122 29 145 27 12 91 8 91 -5z m55 -75 c0 -73 -3 -90 -15 -90 -12 0 -15 17 -15
90 0 73 3 90 15 90 12 0 15 -17 15 -90z m218 59 c3 -22 7 -24 36 -21 40 5 60
-17 60 -63 0 -51 -18 -65 -81 -65 -46 0 -54 3 -49 16 3 9 6 49 6 91 0 55 3 74
13 71 6 -3 13 -16 15 -29z m-1088 -4 c0 -8 7 -15 15 -15 8 0 15 -7 15 -15 0
-8 -7 -15 -15 -15 -11 0 -15 -11 -15 -40 0 -29 4 -40 15 -40 8 0 15 -5 15 -11
0 -6 -12 -9 -27 -7 -26 3 -28 7 -31 51 -2 26 -7 47 -13 47 -5 0 -9 7 -9 15 0
8 5 15 10 15 6 0 10 7 10 15 0 8 7 15 15 15 8 0 15 -7 15 -15z m570 0 c0 -8 7
-15 15 -15 8 0 15 -7 15 -15 0 -8 -7 -15 -15 -15 -11 0 -15 -11 -15 -40 0 -29
4 -40 15 -40 8 0 15 -5 15 -11 0 -6 -12 -9 -27 -7 -26 3 -28 7 -31 51 -2 26
-7 47 -13 47 -5 0 -9 7 -9 15 0 8 5 15 10 15 6 0 10 7 10 15 0 8 7 15 15 15 8
0 15 -7 15 -15z m-650 -37 c41 -44 11 -108 -52 -108 -40 0 -68 25 -68 62 0 61
78 91 120 46z m218 10 c7 -7 12 -36 12 -66 l0 -53 -46 3 c-58 4 -78 26 -50 57
11 12 30 21 43 21 32 0 24 25 -8 26 -37 2 -41 3 -34 14 9 14 68 13 83 -2z
m122 1 c0 -6 -9 -13 -20 -16 -17 -4 -20 -14 -20 -54 0 -42 -3 -49 -20 -49 -18
0 -20 7 -20 58 0 32 2 61 5 64 10 10 75 7 75 -3z m98 -1 c5 -7 12 -37 14 -65
l5 -53 -48 0 c-37 0 -51 4 -58 18 -14 26 13 62 45 62 16 0 24 5 21 13 -2 6
-16 11 -31 10 -17 -1 -26 3 -26 13 0 18 63 19 78 2z m142 -4 c0 -11 -5 -14
-16 -10 -24 9 -54 -12 -54 -37 0 -31 18 -47 53 -47 16 0 26 -4 22 -10 -9 -14
-68 -12 -89 3 -26 19 -24 76 4 99 28 23 80 24 80 2z m440 -40 c4 -41 8 -49 25
-49 17 0 20 8 23 53 2 37 7 52 18 52 11 0 14 -15 14 -65 l0 -65 -49 0 c-46 0
-50 2 -60 31 -12 36 -14 82 -4 93 16 15 28 -4 33 -50z m-392 -202 c2 -7 -6
-12 -17 -12 -12 0 -21 -6 -21 -15 0 -8 7 -15 15 -15 8 0 15 -4 15 -9 0 -5 -7
-11 -15 -15 -11 -4 -15 -20 -15 -56 0 -44 -3 -51 -17 -48 -25 5 -37 109 -17
146 19 38 62 52 72 24z m-128 -52 c27 -14 35 -65 16 -95 -13 -20 -25 -25 -56
-25 -64 0 -92 60 -48 107 23 24 57 30 88 13z m-864 -265 c28 -38 7 -76 -48
-90 -23 -6 -28 -13 -28 -36 0 -19 -5 -29 -15 -29 -12 0 -15 17 -15 89 l0 90
46 -3 c32 -2 51 -9 60 -21z m284 -65 c0 -73 -3 -90 -15 -90 -12 0 -15 17 -15
90 0 73 3 90 15 90 12 0 15 -17 15 -90z m310 60 c0 -27 2 -29 29 -24 22 5 32
1 45 -17 21 -30 22 -109 2 -109 -11 0 -16 14 -18 48 -3 43 -5 47 -28 47 -23 0
-25 -4 -28 -47 -2 -34 -7 -48 -18 -48 -11 0 -14 18 -14 90 0 73 3 90 15 90 10
0 15 -10 15 -30z m718 24 c37 -10 25 -24 -22 -24 -35 0 -48 -5 -60 -22 -34
-49 -6 -111 47 -106 24 2 33 8 35 26 3 17 -2 22 -17 22 -12 0 -21 5 -21 10 0
6 16 10 35 10 35 0 35 0 35 -45 l0 -45 -59 0 c-52 0 -62 3 -80 26 -39 49 -23
115 32 139 37 16 44 17 75 9z m532 -12 c0 -4 -20 -36 -45 -70 -25 -34 -45 -64
-45 -67 0 -3 23 -5 51 -5 31 0 48 -4 44 -10 -6 -10 -145 -15 -145 -5 0 3 22
36 49 73 l49 67 -44 3 c-68 5 -52 22 21 22 36 0 65 -4 65 -8z m-1731 -41 c8
-5 16 -32 19 -64 l4 -55 -53 1 c-53 2 -54 3 -54 32 0 25 5 32 33 40 48 14 41
31 -10 26 -18 -2 -24 10 -11 22 9 10 56 8 72 -2z m121 -6 c0 -7 -9 -15 -20
-18 -16 -4 -20 -14 -20 -51 0 -34 -4 -46 -15 -46 -12 0 -15 14 -15 63 l0 63
35 1 c22 1 35 -4 35 -12z m172 3 c9 -7 19 -23 23 -35 6 -22 3 -23 -40 -23 -39
0 -46 -3 -43 -17 2 -13 14 -19 41 -21 55 -5 45 -24 -10 -20 -40 3 -50 7 -61
30 -13 28 -2 75 21 90 18 12 51 9 69 -4z m126 -6 c3 -9 -3 -13 -18 -10 -33 4
-35 -16 -5 -30 21 -10 26 -18 23 -40 -2 -23 -8 -28 -37 -30 -18 -2 -38 1 -44
7 -8 8 -2 11 21 11 39 0 43 22 7 38 -27 12 -35 56 -12 66 21 9 60 2 65 -12z
m206 -25 c5 -20 12 -37 16 -37 4 0 11 17 16 37 13 52 32 53 51 3 l17 -43 18
42 c9 22 22 41 28 41 14 0 13 -8 -9 -70 -23 -66 -48 -73 -67 -20 l-12 35 -16
-37 c-23 -53 -42 -48 -61 14 -18 63 -19 81 -2 76 6 -3 16 -21 21 -41z m260 27
c10 -10 16 -33 16 -65 l0 -50 -52 3 c-48 3 -53 6 -56 27 -4 29 20 51 55 51 13
0 23 4 23 9 0 13 -25 20 -49 14 -12 -3 -21 -1 -21 5 0 24 62 29 84 6z m116 0
c0 -8 -6 -14 -14 -14 -17 0 -26 -22 -26 -66 0 -24 -5 -34 -15 -34 -12 0 -15
13 -15 58 0 32 2 61 4 63 12 11 66 5 66 -7z m350 -4 c34 -34 26 -50 -26 -50
-38 0 -45 -3 -42 -17 2 -13 14 -19 41 -21 47 -4 49 -22 1 -22 -56 0 -74 15
-74 60 0 62 58 92 100 50z m142 9 c24 -13 27 -119 3 -119 -11 0 -15 12 -15 49
0 48 -10 63 -37 54 -8 -3 -13 -23 -13 -54 0 -42 -3 -49 -20 -49 -18 0 -20 7
-20 58 0 32 2 61 4 63 9 9 80 7 98 -2z"/>
<path d="M5355 4216 c-149 -47 -263 -170 -281 -304 l-7 -52 418 0 417 0 -7 43
c-16 99 -87 205 -177 263 -92 59 -261 82 -363 50z"/>
<path d="M5070 3245 l0 -475 415 0 415 0 0 475 0 475 -415 0 -415 0 0 -475z"/>
<path d="M4670 2504 c0 -22 4 -25 28 -22 19 2 28 9 30 26 3 19 -1 22 -27 22
-27 0 -31 -4 -31 -26z"/>
<path d="M6081 2476 c-7 -8 -11 -27 -9 -43 2 -22 8 -28 28 -28 21 0 26 5 28
34 5 45 -23 66 -47 37z"/>
<path d="M4826 2474 c-19 -19 -20 -35 -3 -58 16 -22 56 -14 58 12 4 55 -23 78
-55 46z"/>
<path d="M5063 2425 c-3 -9 -3 -18 0 -22 10 -10 37 6 37 22 0 20 -29 20 -37 0z"/>
<path d="M5276 2425 c-6 -17 17 -31 34 -20 5 3 10 13 10 21 0 19 -36 18 -44
-1z"/>
<path d="M5335 2170 c-15 -17 -16 -24 -7 -45 21 -46 83 -16 65 32 -13 36 -33
41 -58 13z"/>
<path d="M4460 1900 c0 -23 5 -30 19 -30 10 0 24 6 30 14 17 20 3 46 -25 46
-20 0 -24 -5 -24 -30z"/>
<path d="M4593 1825 c-3 -9 -2 -19 1 -23 8 -8 38 10 44 26 6 18 -38 14 -45 -3z"/>
<path d="M4893 1883 c-22 -8 -14 -23 13 -23 15 0 24 5 22 12 -5 14 -18 18 -35
11z"/>
<path d="M5473 1825 c-3 -9 -3 -18 0 -21 10 -10 47 7 47 22 0 19 -39 18 -47
-1z"/>
<path d="M5940 1875 c-11 -13 -8 -15 20 -15 28 0 31 2 20 15 -7 8 -16 15 -20
15 -4 0 -13 -7 -20 -15z"/>
</g>
</svg>
